<mxfile host="app.diagrams.net" modified="2023-04-08T10:02:54.531Z" agent="Mozilla/5.0 (Windows NT 10.0; Win64; x64) AppleWebKit/537.36 (KHTML, like Gecko) Chrome/111.0.0.0 Safari/537.36" etag="FKBYdroT9IJkGUe_QCgy" version="21.1.4" type="github">
  <diagram name="第 1 页" id="4VGFoM_0TgWvralKycdt">
    <mxGraphModel dx="1235" dy="569" grid="1" gridSize="10" guides="1" tooltips="1" connect="1" arrows="1" fold="1" page="1" pageScale="1" pageWidth="827" pageHeight="1169" math="0" shadow="0">
      <root>
        <mxCell id="0" />
        <mxCell id="1" parent="0" />
        <mxCell id="99VtZ-csaqp6xX7NsGU4-34" value="" style="rounded=0;whiteSpace=wrap;html=1;fontSize=15;" parent="1" vertex="1">
          <mxGeometry x="525" y="95" width="110" height="210" as="geometry" />
        </mxCell>
        <mxCell id="99VtZ-csaqp6xX7NsGU4-1" value="" style="rounded=0;whiteSpace=wrap;html=1;fontSize=15;" parent="1" vertex="1">
          <mxGeometry x="148" y="365" width="350" height="45" as="geometry" />
        </mxCell>
        <mxCell id="99VtZ-csaqp6xX7NsGU4-4" value="感知层" style="text;html=1;align=center;verticalAlign=middle;resizable=0;points=[];autosize=1;strokeColor=none;fillColor=none;fontSize=15;" parent="1" vertex="1">
          <mxGeometry x="63" y="374" width="70" height="30" as="geometry" />
        </mxCell>
        <mxCell id="99VtZ-csaqp6xX7NsGU4-5" value="STM32" style="rounded=0;whiteSpace=wrap;html=1;fontSize=15;" parent="1" vertex="1">
          <mxGeometry x="277" y="375" width="80" height="20" as="geometry" />
        </mxCell>
        <mxCell id="99VtZ-csaqp6xX7NsGU4-6" value="移动通信模组" style="rounded=0;whiteSpace=wrap;html=1;fontSize=15;" parent="1" vertex="1">
          <mxGeometry x="376" y="375" width="101" height="20" as="geometry" />
        </mxCell>
        <mxCell id="99VtZ-csaqp6xX7NsGU4-7" value="4G/5G" style="rounded=0;whiteSpace=wrap;html=1;fontSize=15;" parent="1" vertex="1">
          <mxGeometry x="165" y="314" width="140" height="30" as="geometry" />
        </mxCell>
        <mxCell id="99VtZ-csaqp6xX7NsGU4-9" value="wifi" style="rounded=0;whiteSpace=wrap;html=1;fontSize=15;" parent="1" vertex="1">
          <mxGeometry x="357" y="313" width="120" height="30" as="geometry" />
        </mxCell>
        <mxCell id="99VtZ-csaqp6xX7NsGU4-10" value="传输层" style="text;html=1;align=center;verticalAlign=middle;resizable=0;points=[];autosize=1;strokeColor=none;fillColor=none;fontSize=15;" parent="1" vertex="1">
          <mxGeometry x="63" y="312" width="70" height="30" as="geometry" />
        </mxCell>
        <mxCell id="99VtZ-csaqp6xX7NsGU4-12" value="" style="rounded=0;whiteSpace=wrap;html=1;fontSize=15;" parent="1" vertex="1">
          <mxGeometry x="148" y="140" width="350" height="158" as="geometry" />
        </mxCell>
        <mxCell id="99VtZ-csaqp6xX7NsGU4-13" value="处理层" style="text;html=1;align=center;verticalAlign=middle;resizable=0;points=[];autosize=1;strokeColor=none;fillColor=none;fontSize=15;" parent="1" vertex="1">
          <mxGeometry x="63" y="196" width="70" height="30" as="geometry" />
        </mxCell>
        <mxCell id="99VtZ-csaqp6xX7NsGU4-15" value="负载均衡" style="rounded=0;whiteSpace=wrap;html=1;fontSize=15;" parent="1" vertex="1">
          <mxGeometry x="165" y="258" width="310" height="30" as="geometry" />
        </mxCell>
        <mxCell id="99VtZ-csaqp6xX7NsGU4-16" value="muduo" style="rounded=0;whiteSpace=wrap;html=1;fontSize=15;" parent="1" vertex="1">
          <mxGeometry x="169" y="209" width="89" height="30" as="geometry" />
        </mxCell>
        <mxCell id="99VtZ-csaqp6xX7NsGU4-18" value="TDengine" style="rounded=0;whiteSpace=wrap;html=1;fontSize=15;" parent="1" vertex="1">
          <mxGeometry x="530" y="223" width="100" height="30" as="geometry" />
        </mxCell>
        <mxCell id="99VtZ-csaqp6xX7NsGU4-19" value="JDBC" style="rounded=0;whiteSpace=wrap;html=1;fontSize=15;" parent="1" vertex="1">
          <mxGeometry x="388" y="209" width="82.5" height="30" as="geometry" />
        </mxCell>
        <mxCell id="99VtZ-csaqp6xX7NsGU4-20" value="Kafka" style="rounded=0;whiteSpace=wrap;html=1;fontSize=15;" parent="1" vertex="1">
          <mxGeometry x="530" y="261" width="100" height="30" as="geometry" />
        </mxCell>
        <mxCell id="99VtZ-csaqp6xX7NsGU4-21" value="Concurrent&lt;br style=&quot;font-size: 15px;&quot;&gt;Queue" style="rounded=0;whiteSpace=wrap;html=1;fontSize=15;" parent="1" vertex="1">
          <mxGeometry x="284" y="209" width="78" height="30" as="geometry" />
        </mxCell>
        <mxCell id="99VtZ-csaqp6xX7NsGU4-23" value="数据处理与解析" style="rounded=0;whiteSpace=wrap;html=1;fontSize=15;" parent="1" vertex="1">
          <mxGeometry x="169" y="159" width="89" height="31" as="geometry" />
        </mxCell>
        <mxCell id="99VtZ-csaqp6xX7NsGU4-24" value="Redis" style="rounded=0;whiteSpace=wrap;html=1;fontSize=15;" parent="1" vertex="1">
          <mxGeometry x="530" y="182" width="100" height="30" as="geometry" />
        </mxCell>
        <mxCell id="99VtZ-csaqp6xX7NsGU4-25" value="MySQL" style="rounded=0;whiteSpace=wrap;html=1;fontSize=15;" parent="1" vertex="1">
          <mxGeometry x="530" y="138" width="100" height="30" as="geometry" />
        </mxCell>
        <mxCell id="99VtZ-csaqp6xX7NsGU4-26" value="" style="rounded=0;whiteSpace=wrap;html=1;fontSize=15;" parent="1" vertex="1">
          <mxGeometry x="148" y="27" width="350" height="48" as="geometry" />
        </mxCell>
        <mxCell id="99VtZ-csaqp6xX7NsGU4-27" value="应用层" style="text;html=1;align=center;verticalAlign=middle;resizable=0;points=[];autosize=1;strokeColor=none;fillColor=none;fontSize=15;" parent="1" vertex="1">
          <mxGeometry x="63" y="36" width="70" height="30" as="geometry" />
        </mxCell>
        <mxCell id="99VtZ-csaqp6xX7NsGU4-28" value="Spring Boot" style="rounded=0;whiteSpace=wrap;html=1;fontSize=15;" parent="1" vertex="1">
          <mxGeometry x="168" y="36" width="90" height="30" as="geometry" />
        </mxCell>
        <mxCell id="99VtZ-csaqp6xX7NsGU4-29" value="Vue.js" style="rounded=0;whiteSpace=wrap;html=1;fontSize=15;" parent="1" vertex="1">
          <mxGeometry x="277" y="36" width="90" height="30" as="geometry" />
        </mxCell>
        <mxCell id="99VtZ-csaqp6xX7NsGU4-30" value="element-ui" style="rounded=0;whiteSpace=wrap;html=1;fontSize=15;" parent="1" vertex="1">
          <mxGeometry x="387" y="36" width="90" height="30" as="geometry" />
        </mxCell>
        <mxCell id="99VtZ-csaqp6xX7NsGU4-32" value="Flink" style="rounded=0;whiteSpace=wrap;html=1;fontSize=15;" parent="1" vertex="1">
          <mxGeometry x="286" y="159" width="81" height="30" as="geometry" />
        </mxCell>
        <mxCell id="99VtZ-csaqp6xX7NsGU4-33" value="Spark" style="rounded=0;whiteSpace=wrap;html=1;fontSize=15;" parent="1" vertex="1">
          <mxGeometry x="387" y="159" width="83.5" height="30" as="geometry" />
        </mxCell>
        <mxCell id="99VtZ-csaqp6xX7NsGU4-35" value="数据存储" style="text;html=1;align=center;verticalAlign=middle;resizable=0;points=[];autosize=1;strokeColor=none;fillColor=none;fontSize=15;fontFamily=Helvetica;" parent="1" vertex="1">
          <mxGeometry x="535" y="102" width="80" height="30" as="geometry" />
        </mxCell>
        <mxCell id="99VtZ-csaqp6xX7NsGU4-36" value="" style="html=1;shadow=0;dashed=0;align=center;verticalAlign=middle;shape=mxgraph.arrows2.arrow;dy=0.69;dx=7.44;direction=north;notch=0;fontFamily=Helvetica;fontSize=15;" parent="1" vertex="1">
          <mxGeometry x="232" y="290" width="10" height="22" as="geometry" />
        </mxCell>
        <mxCell id="99VtZ-csaqp6xX7NsGU4-37" value="" style="html=1;shadow=0;dashed=0;align=center;verticalAlign=middle;shape=mxgraph.arrows2.arrow;dy=0.69;dx=7.44;direction=north;notch=0;fontFamily=Helvetica;fontSize=15;" parent="1" vertex="1">
          <mxGeometry x="414" y="290" width="10" height="22" as="geometry" />
        </mxCell>
        <mxCell id="99VtZ-csaqp6xX7NsGU4-38" value="" style="html=1;shadow=0;dashed=0;align=center;verticalAlign=middle;shape=mxgraph.arrows2.arrow;dy=0.69;dx=7.44;direction=north;notch=0;fontFamily=Helvetica;fontSize=15;" parent="1" vertex="1">
          <mxGeometry x="230" y="346" width="10" height="22" as="geometry" />
        </mxCell>
        <mxCell id="99VtZ-csaqp6xX7NsGU4-39" value="" style="html=1;shadow=0;dashed=0;align=center;verticalAlign=middle;shape=mxgraph.arrows2.arrow;dy=0.69;dx=7.44;direction=north;notch=0;fontFamily=Helvetica;fontSize=15;" parent="1" vertex="1">
          <mxGeometry x="414" y="346" width="10" height="22" as="geometry" />
        </mxCell>
        <mxCell id="99VtZ-csaqp6xX7NsGU4-40" value="" style="html=1;shadow=0;dashed=0;align=center;verticalAlign=middle;shape=mxgraph.arrows2.arrow;dy=0.69;dx=7.44;direction=north;notch=0;fontFamily=Helvetica;fontSize=15;" parent="1" vertex="1">
          <mxGeometry x="230" y="122" width="10" height="22" as="geometry" />
        </mxCell>
        <mxCell id="99VtZ-csaqp6xX7NsGU4-41" value="" style="html=1;shadow=0;dashed=0;align=center;verticalAlign=middle;shape=mxgraph.arrows2.arrow;dy=0.69;dx=7.44;direction=north;notch=0;fontFamily=Helvetica;fontSize=15;" parent="1" vertex="1">
          <mxGeometry x="415" y="122" width="10" height="22" as="geometry" />
        </mxCell>
        <mxCell id="99VtZ-csaqp6xX7NsGU4-42" value="" style="html=1;shadow=0;dashed=0;align=center;verticalAlign=middle;shape=mxgraph.arrows2.twoWayArrow;dy=0.6;dx=8.89;fontFamily=Helvetica;fontSize=15;" parent="1" vertex="1">
          <mxGeometry x="480" y="170" width="40" height="8" as="geometry" />
        </mxCell>
        <mxCell id="99VtZ-csaqp6xX7NsGU4-44" value="" style="html=1;shadow=0;dashed=0;align=center;verticalAlign=middle;shape=mxgraph.arrows2.twoWayArrow;dy=0.6;dx=8.89;fontFamily=Helvetica;fontSize=15;" parent="1" vertex="1">
          <mxGeometry x="480" y="221" width="40" height="8" as="geometry" />
        </mxCell>
        <mxCell id="99VtZ-csaqp6xX7NsGU4-46" value="电源设备" style="rounded=0;whiteSpace=wrap;html=1;fontSize=15;fontFamily=Helvetica;" parent="1" vertex="1">
          <mxGeometry x="165" y="375" width="80" height="20" as="geometry" />
        </mxCell>
        <mxCell id="RpqjqyptFsIyIQh3CnNs-1" value="" style="rounded=0;whiteSpace=wrap;html=1;fontSize=10;" vertex="1" parent="1">
          <mxGeometry x="1502" y="249" width="110" height="210" as="geometry" />
        </mxCell>
        <mxCell id="RpqjqyptFsIyIQh3CnNs-2" value="" style="rounded=0;whiteSpace=wrap;html=1;fontSize=10;" vertex="1" parent="1">
          <mxGeometry x="1125" y="528" width="350" height="45" as="geometry" />
        </mxCell>
        <mxCell id="RpqjqyptFsIyIQh3CnNs-3" value="感知层" style="text;html=1;align=center;verticalAlign=middle;resizable=0;points=[];autosize=1;strokeColor=none;fillColor=none;fontSize=10;" vertex="1" parent="1">
          <mxGeometry x="1040" y="535.5" width="60" height="30" as="geometry" />
        </mxCell>
        <mxCell id="RpqjqyptFsIyIQh3CnNs-4" value="STM32" style="rounded=0;whiteSpace=wrap;html=1;fontSize=10;" vertex="1" parent="1">
          <mxGeometry x="1254" y="538" width="80" height="20" as="geometry" />
        </mxCell>
        <mxCell id="RpqjqyptFsIyIQh3CnNs-5" value="移动通信模组" style="rounded=0;whiteSpace=wrap;html=1;fontSize=10;" vertex="1" parent="1">
          <mxGeometry x="1353" y="538" width="101" height="20" as="geometry" />
        </mxCell>
        <mxCell id="RpqjqyptFsIyIQh3CnNs-6" value="4G" style="rounded=0;whiteSpace=wrap;html=1;fontSize=10;" vertex="1" parent="1">
          <mxGeometry x="1142" y="477" width="140" height="30" as="geometry" />
        </mxCell>
        <mxCell id="RpqjqyptFsIyIQh3CnNs-7" value="5G" style="rounded=0;whiteSpace=wrap;html=1;fontSize=10;" vertex="1" parent="1">
          <mxGeometry x="1334" y="476" width="120" height="30" as="geometry" />
        </mxCell>
        <mxCell id="RpqjqyptFsIyIQh3CnNs-8" value="传输层" style="text;html=1;align=center;verticalAlign=middle;resizable=0;points=[];autosize=1;strokeColor=none;fillColor=none;fontSize=10;" vertex="1" parent="1">
          <mxGeometry x="1040" y="475" width="60" height="30" as="geometry" />
        </mxCell>
        <mxCell id="RpqjqyptFsIyIQh3CnNs-9" value="" style="rounded=0;whiteSpace=wrap;html=1;fontSize=10;" vertex="1" parent="1">
          <mxGeometry x="1125" y="260" width="350" height="201" as="geometry" />
        </mxCell>
        <mxCell id="RpqjqyptFsIyIQh3CnNs-10" value="处理层" style="text;html=1;align=center;verticalAlign=middle;resizable=0;points=[];autosize=1;strokeColor=none;fillColor=none;fontSize=10;" vertex="1" parent="1">
          <mxGeometry x="1040" y="365" width="60" height="30" as="geometry" />
        </mxCell>
        <mxCell id="RpqjqyptFsIyIQh3CnNs-11" value="负载均衡" style="rounded=0;whiteSpace=wrap;html=1;fontSize=10;" vertex="1" parent="1">
          <mxGeometry x="1142" y="421" width="310" height="30" as="geometry" />
        </mxCell>
        <mxCell id="RpqjqyptFsIyIQh3CnNs-13" value="TDengine" style="rounded=0;whiteSpace=wrap;html=1;fontSize=10;" vertex="1" parent="1">
          <mxGeometry x="1507" y="377" width="100" height="30" as="geometry" />
        </mxCell>
        <mxCell id="RpqjqyptFsIyIQh3CnNs-15" value="Kafka" style="rounded=0;whiteSpace=wrap;html=1;fontSize=10;" vertex="1" parent="1">
          <mxGeometry x="1507" y="415" width="100" height="30" as="geometry" />
        </mxCell>
        <mxCell id="RpqjqyptFsIyIQh3CnNs-17" value="" style="rounded=0;whiteSpace=wrap;html=1;fontSize=10;" vertex="1" parent="1">
          <mxGeometry x="1140" y="350" width="310" height="60" as="geometry" />
        </mxCell>
        <mxCell id="RpqjqyptFsIyIQh3CnNs-18" value="Redis" style="rounded=0;whiteSpace=wrap;html=1;fontSize=10;" vertex="1" parent="1">
          <mxGeometry x="1507" y="336" width="100" height="30" as="geometry" />
        </mxCell>
        <mxCell id="RpqjqyptFsIyIQh3CnNs-19" value="MySQL" style="rounded=0;whiteSpace=wrap;html=1;fontSize=10;" vertex="1" parent="1">
          <mxGeometry x="1507" y="292" width="100" height="30" as="geometry" />
        </mxCell>
        <mxCell id="RpqjqyptFsIyIQh3CnNs-20" value="" style="rounded=0;whiteSpace=wrap;html=1;fontSize=10;" vertex="1" parent="1">
          <mxGeometry x="1125" y="192" width="350" height="48" as="geometry" />
        </mxCell>
        <mxCell id="RpqjqyptFsIyIQh3CnNs-21" value="应用层" style="text;html=1;align=center;verticalAlign=middle;resizable=0;points=[];autosize=1;strokeColor=none;fillColor=none;fontSize=10;" vertex="1" parent="1">
          <mxGeometry x="1040" y="201" width="60" height="30" as="geometry" />
        </mxCell>
        <mxCell id="RpqjqyptFsIyIQh3CnNs-22" value="&lt;font style=&quot;font-size: 11px;&quot;&gt;用户管理&lt;/font&gt;" style="rounded=0;whiteSpace=wrap;html=1;fontSize=10;" vertex="1" parent="1">
          <mxGeometry x="1137" y="201" width="55" height="30" as="geometry" />
        </mxCell>
        <mxCell id="RpqjqyptFsIyIQh3CnNs-23" value="设备管理" style="rounded=0;whiteSpace=wrap;html=1;fontSize=10;" vertex="1" parent="1">
          <mxGeometry x="1208" y="201" width="66" height="30" as="geometry" />
        </mxCell>
        <mxCell id="RpqjqyptFsIyIQh3CnNs-24" value="设备监测与报警" style="rounded=0;whiteSpace=wrap;html=1;fontSize=10;" vertex="1" parent="1">
          <mxGeometry x="1290" y="201" width="90" height="30" as="geometry" />
        </mxCell>
        <mxCell id="RpqjqyptFsIyIQh3CnNs-27" value="数据存储" style="text;html=1;align=center;verticalAlign=middle;resizable=0;points=[];autosize=1;strokeColor=none;fillColor=none;fontSize=10;fontFamily=Helvetica;" vertex="1" parent="1">
          <mxGeometry x="1517" y="256" width="70" height="30" as="geometry" />
        </mxCell>
        <mxCell id="RpqjqyptFsIyIQh3CnNs-28" value="" style="html=1;shadow=0;dashed=0;align=center;verticalAlign=middle;shape=mxgraph.arrows2.arrow;dy=0.69;dx=7.44;direction=north;notch=0;fontFamily=Helvetica;fontSize=10;" vertex="1" parent="1">
          <mxGeometry x="1209" y="453" width="10" height="22" as="geometry" />
        </mxCell>
        <mxCell id="RpqjqyptFsIyIQh3CnNs-29" value="" style="html=1;shadow=0;dashed=0;align=center;verticalAlign=middle;shape=mxgraph.arrows2.arrow;dy=0.69;dx=7.44;direction=north;notch=0;fontFamily=Helvetica;fontSize=10;" vertex="1" parent="1">
          <mxGeometry x="1391" y="453" width="10" height="22" as="geometry" />
        </mxCell>
        <mxCell id="RpqjqyptFsIyIQh3CnNs-30" value="" style="html=1;shadow=0;dashed=0;align=center;verticalAlign=middle;shape=mxgraph.arrows2.arrow;dy=0.69;dx=7.44;direction=north;notch=0;fontFamily=Helvetica;fontSize=10;" vertex="1" parent="1">
          <mxGeometry x="1207" y="509" width="10" height="22" as="geometry" />
        </mxCell>
        <mxCell id="RpqjqyptFsIyIQh3CnNs-31" value="" style="html=1;shadow=0;dashed=0;align=center;verticalAlign=middle;shape=mxgraph.arrows2.arrow;dy=0.69;dx=7.44;direction=north;notch=0;fontFamily=Helvetica;fontSize=10;" vertex="1" parent="1">
          <mxGeometry x="1391" y="509" width="10" height="22" as="geometry" />
        </mxCell>
        <mxCell id="RpqjqyptFsIyIQh3CnNs-34" value="" style="html=1;shadow=0;dashed=0;align=center;verticalAlign=middle;shape=mxgraph.arrows2.twoWayArrow;dy=0.6;dx=8.89;fontFamily=Helvetica;fontSize=10;" vertex="1" parent="1">
          <mxGeometry x="1457" y="326" width="40" height="8" as="geometry" />
        </mxCell>
        <mxCell id="RpqjqyptFsIyIQh3CnNs-35" value="" style="html=1;shadow=0;dashed=0;align=center;verticalAlign=middle;shape=mxgraph.arrows2.twoWayArrow;dy=0.6;dx=8.89;fontFamily=Helvetica;fontSize=10;" vertex="1" parent="1">
          <mxGeometry x="1457" y="384" width="40" height="8" as="geometry" />
        </mxCell>
        <mxCell id="RpqjqyptFsIyIQh3CnNs-36" value="电源设备" style="rounded=0;whiteSpace=wrap;html=1;fontSize=10;fontFamily=Helvetica;" vertex="1" parent="1">
          <mxGeometry x="1142" y="538" width="80" height="20" as="geometry" />
        </mxCell>
        <mxCell id="RpqjqyptFsIyIQh3CnNs-37" value="&lt;font style=&quot;font-size: 10px;&quot;&gt;数据接收与解析&lt;/font&gt;" style="text;html=1;align=center;verticalAlign=middle;resizable=0;points=[];autosize=1;strokeColor=none;fillColor=none;fontSize=10;" vertex="1" parent="1">
          <mxGeometry x="1240" y="347" width="110" height="30" as="geometry" />
        </mxCell>
        <mxCell id="RpqjqyptFsIyIQh3CnNs-38" value="数据接收" style="rounded=0;whiteSpace=wrap;html=1;fontSize=10;" vertex="1" parent="1">
          <mxGeometry x="1146" y="375" width="90" height="30" as="geometry" />
        </mxCell>
        <mxCell id="RpqjqyptFsIyIQh3CnNs-40" value="数据解析" style="rounded=0;whiteSpace=wrap;html=1;fontSize=10;" vertex="1" parent="1">
          <mxGeometry x="1248" y="375" width="90" height="30" as="geometry" />
        </mxCell>
        <mxCell id="RpqjqyptFsIyIQh3CnNs-41" value="数据异步传递" style="rounded=0;whiteSpace=wrap;html=1;fontSize=10;" vertex="1" parent="1">
          <mxGeometry x="1346" y="375" width="100" height="30" as="geometry" />
        </mxCell>
        <mxCell id="RpqjqyptFsIyIQh3CnNs-42" value="" style="rounded=0;whiteSpace=wrap;html=1;fontSize=10;" vertex="1" parent="1">
          <mxGeometry x="1139" y="280" width="310" height="58" as="geometry" />
        </mxCell>
        <mxCell id="RpqjqyptFsIyIQh3CnNs-43" value="&lt;font style=&quot;font-size: 10px;&quot;&gt;数据处理&lt;/font&gt;" style="text;html=1;align=center;verticalAlign=middle;resizable=0;points=[];autosize=1;strokeColor=none;fillColor=none;fontSize=10;" vertex="1" parent="1">
          <mxGeometry x="1260" y="275" width="70" height="30" as="geometry" />
        </mxCell>
        <mxCell id="RpqjqyptFsIyIQh3CnNs-44" value="数据实时处理" style="rounded=0;whiteSpace=wrap;html=1;fontSize=10;" vertex="1" parent="1">
          <mxGeometry x="1166.5" y="303" width="95" height="30" as="geometry" />
        </mxCell>
        <mxCell id="RpqjqyptFsIyIQh3CnNs-45" value="数据持久化" style="rounded=0;whiteSpace=wrap;html=1;fontSize=10;" vertex="1" parent="1">
          <mxGeometry x="1312" y="303" width="90" height="30" as="geometry" />
        </mxCell>
        <mxCell id="RpqjqyptFsIyIQh3CnNs-48" value="数据查询" style="rounded=0;whiteSpace=wrap;html=1;fontSize=10;" vertex="1" parent="1">
          <mxGeometry x="1397" y="201" width="66" height="30" as="geometry" />
        </mxCell>
        <mxCell id="RpqjqyptFsIyIQh3CnNs-49" value="" style="html=1;shadow=0;dashed=0;align=center;verticalAlign=middle;shape=mxgraph.arrows2.twoWayArrow;dy=0.6;dx=8.89;fontFamily=Helvetica;fontSize=10;rotation=-90;" vertex="1" parent="1">
          <mxGeometry x="1188.5" y="250" width="40" height="8" as="geometry" />
        </mxCell>
        <mxCell id="RpqjqyptFsIyIQh3CnNs-52" value="" style="html=1;shadow=0;dashed=0;align=center;verticalAlign=middle;shape=mxgraph.arrows2.twoWayArrow;dy=0.6;dx=8.89;fontFamily=Helvetica;fontSize=10;rotation=-90;" vertex="1" parent="1">
          <mxGeometry x="1362" y="252" width="40" height="8" as="geometry" />
        </mxCell>
      </root>
    </mxGraphModel>
  </diagram>
</mxfile>
